<svg xmlns="http://www.w3.org/2000/svg" viewBox="0 0 512 512" role="img" aria-label="AppСтрой">
  <defs>
    <linearGradient id="stone" x1="0" y1="0" x2="1" y2="1">
      <stop offset="0" stop-color="#FBFAF7"/>
      <stop offset="1" stop-color="#E8E4DC"/>
    </linearGradient>
    <linearGradient id="navy" x1="0" y1="0" x2="1" y2="1">
      <stop offset="0" stop-color="#101723"/>
      <stop offset="1" stop-color="#253247"/>
    </linearGradient>
    <linearGradient id="blue" x1="0" y1="0" x2="1" y2="1">
      <stop offset="0" stop-color="#255C9D"/>
      <stop offset="1" stop-color="#123B70"/>
    </linearGradient>
    <linearGradient id="gold" x1="0" y1="0" x2="1" y2="1">
      <stop offset="0" stop-color="#E4C98C"/>
      <stop offset="1" stop-color="#A98545"/>
    </linearGradient>
    <filter id="shadow" x="-30%" y="-30%" width="160%" height="180%">
      <feDropShadow dx="0" dy="16" stdDeviation="15" flood-color="#121722" flood-opacity="0.20"/>
    </filter>
  </defs>

  <rect x="16" y="16" width="480" height="480" rx="126" fill="url(#stone)"/>
  <rect x="25" y="25" width="462" height="462" rx="118" fill="none" stroke="#FFFFFF" stroke-opacity="0.84" stroke-width="3"/>

  <g opacity="0.19" fill="none" stroke="#7C828A" stroke-width="2">
    <circle cx="256" cy="252" r="176"/>
    <circle cx="314" cy="190" r="108"/>
    <circle cx="358" cy="286" r="68"/>
  </g>

  <g filter="url(#shadow)">
    <path d="M105 386L245 92L274 92L187 386Z" fill="url(#navy)"/>
    <path d="M205 386V244L253 205V386Z" fill="url(#blue)"/>
    <path d="M268 386V137L318 174V386Z" fill="url(#navy)"/>
    <path d="M323 386V252L361 281V386Z" fill="url(#blue)"/>
    <path d="M352 386C402 350 405 286 357 245L383 226C450 281 442 367 390 402H352Z" fill="url(#blue)"/>
    <path d="M151 327C123 253 154 171 224 135" fill="none" stroke="url(#blue)" stroke-width="15" stroke-linecap="round"/>
    <path d="M237 226L267 195V229L245 248Z" fill="url(#gold)"/>
    <path d="M91 404H421" stroke="url(#gold)" stroke-width="8" stroke-linecap="round"/>
  </g>
</svg>
